<svg id="Capa_1" data-name="Capa 1" xmlns="http://www.w3.org/2000/svg" viewBox="0 0 660 630.32"><defs><style>.cls-1{fill:blue;}.cls-2{fill:lime;}.cls-3{fill:red;}.cls-4{fill:#ff0;}.cls-5{fill:#f0f;}.cls-6{fill:aqua;}.cls-7{fill:#fff;}</style></defs><title>rbg</title><path class="cls-1" d="M440,410.32c0,121.5-98.5,220-220,220S0,531.82,0,410.32s98.5-220,220-220S440,288.82,440,410.32Z"/><path class="cls-2" d="M660,410.32c0,121.5-98.5,220-220,220s-220-98.5-220-220,98.5-220,220-220S660,288.82,660,410.32Z"/><path class="cls-3" d="M550,220c0,121.5-98.5,220-220,220S110,341.5,110,220,208.5,0,330,0,550,98.5,550,220Z"/><path class="cls-4" d="M440,410.55A219.76,219.76,0,0,1,330,220.11a219.8,219.8,0,0,1,220,.11c0,81.35-44.32,152.29-110,190.32Z"/><path class="cls-5" d="M220,410.44A219.76,219.76,0,0,1,110,220a219.8,219.8,0,0,1,220,.11c0,81.35-44.32,152.29-110,190.32Z"/><path class="cls-6" d="M330,600.87A219.76,219.76,0,0,1,220,410.43a219.8,219.8,0,0,1,220,.11c0,81.35-44.32,152.29-110,190.32Z"/><path class="cls-7" d="M330,220A219.76,219.76,0,0,0,220,410.44a219.8,219.8,0,0,0,220-.11C440,329,395.68,258,330,220Z"/></svg>